<?xml version="1.0" encoding="UTF-8" standalone="no"?>
<svg
   xmlns:dc="http://purl.org/dc/elements/1.1/"
   xmlns:cc="http://creativecommons.org/ns#"
   xmlns:rdf="http://www.w3.org/1999/02/22-rdf-syntax-ns#"
   xmlns:svg="http://www.w3.org/2000/svg"
   xmlns="http://www.w3.org/2000/svg"
   viewBox="0 0 365.33334 352"
   height="352"
   width="365.33334"
   xml:space="preserve"
   id="svg2"
   version="1.1"><metadata
     id="metadata8"><rdf:RDF><cc:Work
         rdf:about=""><dc:format>image/svg+xml</dc:format><dc:type
           rdf:resource="http://purl.org/dc/dcmitype/StillImage" /></cc:Work></rdf:RDF></metadata><defs
     id="defs6" /><g
     transform="matrix(1.3333333,0,0,-1.3333333,0,352)"
     id="g10"><g
       transform="scale(0.1)"
       id="g12"><path
         id="path14"
         style="fill:#78a12e;fill-opacity:1;fill-rule:evenodd;stroke:none"
         d="m 1285.08,1577.03 c 3.12,34.1 3.79,67.7 2.03,100.9 -1.37,16.41 -2.89,33.01 -4.69,49.8 -0.86,7.97 -1.95,16.18 -3.32,24.57 l -1.33,6.65 -0.62,5.31 -2.7,11.95 c -10.15,64.61 -28.08,126.6 -53.75,185.94 -10.19,23.44 -21.95,46.01 -35.23,67.69 -7.03,11.1 -0.67,18.36 19.26,21.92 h 403.04 c 14.65,-0.47 21.49,-4.65 20.59,-12.66 -0.86,-7.5 -1.99,-11.72 -3.32,-12.58 l -2.62,-6.64 c -11.13,-18.59 -20.82,-37.81 -29.26,-57.73 -25.23,-59.34 -43.16,-121.33 -53.75,-185.94 l -2.03,-11.95 -1.29,-5.31 -0.66,-6.65 c -1.76,-8.39 -3.13,-16.6 -4.02,-24.57 -1.76,-16.79 -3.09,-33.39 -3.99,-49.8 -2.19,-33.63 -1.76,-67.27 1.37,-100.9 4.88,-62.85 20.31,-123.08 46.48,-180.62 v 0.7 c 1.76,-2.27 3.99,-11.13 6.61,-26.56 2.65,-15.04 -6.61,-23.71 -27.9,-25.9 h -294.1 c -21.29,2.19 -30.54,10.86 -27.93,25.9 2.66,15.43 4.89,24.29 6.64,26.56 v -0.7 c 26.18,57.54 41.61,117.77 46.49,180.62 m 823.98,-53.79 c -8.86,59.3 -33.86,108.87 -75,148.71 -43.83,38.99 -93.2,57.82 -148.08,56.45 -19.46,-0.47 -38.28,-3.32 -56.45,-8.6 -33.59,-4.49 -62.38,-2.92 -86.33,4.61 -33.59,13.75 -49.57,23.01 -47.77,27.89 2.19,-0.46 19.26,-5.35 51.09,-14.6 16.41,-3.13 35.43,-4.03 57.11,-2.66 16.84,1.37 34.1,4.69 51.8,9.96 -17.7,36.72 -43.59,59.06 -77.66,67.07 -26.17,5.74 -54.25,2.19 -84.33,-10.62 -34.53,-8.4 -51.8,-9.11 -51.8,-2 3.56,-15.97 9.49,-30.35 17.89,-43.16 17.77,-33.63 42.77,-54.45 75.08,-62.42 13.28,-2.66 27.23,-3.09 41.8,-1.33 -9.26,-6.21 -17.46,-13.28 -24.53,-21.25 -32.78,-37.19 -47.82,-78.13 -45.2,-122.85 0.47,-7.03 1.37,-13.67 2.66,-19.89 0,-2.18 0.46,-4.41 1.36,-6.64 0.86,-3.55 1.76,-7.07 2.62,-10.66 2.66,-7.5 5.59,-14.77 8.67,-21.87 7.07,-14.18 15.94,-26.76 26.56,-37.86 15.94,-20.35 39.85,-38.71 71.68,-55.11 32.35,-16.37 74.61,-23.25 126.84,-20.59 -3.12,0 -11.99,9.77 -26.56,29.22 -14.14,19.92 -15.31,50.47 -3.32,91.64 12.81,33.63 12.61,65.27 -0.67,94.92 -20.39,47.38 -53.98,67.31 -100.93,59.77 -1.76,1.36 -9.5,-1.76 -23.25,-9.3 -14.18,-7.97 -23.24,-26.99 -27.18,-57.11 -0.47,-24.3 3.32,-45.58 11.25,-63.75 19.06,-34.49 29.68,-52.42 31.91,-53.71 -1.37,-1.37 -6.44,1.76 -15.31,9.26 -9.3,7.54 -19.03,20.35 -29.18,38.51 -11.06,19.5 -17.07,43.83 -17.97,73.01 0,9.3 2.23,20.82 6.64,34.57 5.74,11.06 12.85,21.45 21.25,31.17 28.79,28.36 66.41,42.07 112.89,41.18 46.02,0 86.8,-16.14 122.15,-48.44 34.1,-34.57 54.88,-77.23 62.42,-128.17 6.21,-51.36 -4.61,-100.27 -32.54,-146.75 -29.65,-46.02 -71.87,-77.86 -126.83,-95.63 -55.28,-16.8 -110.82,-14.33 -166.61,7.34 -27.03,11.06 -51.13,26.76 -72.42,47.15 -10.58,9.73 -20.11,20.59 -28.51,32.5 -8.4,12.42 -16.14,25.24 -23.25,38.52 -27.42,55.35 -43.63,115.08 -48.43,179.26 -2.7,31.44 -3.32,63.08 -2.03,94.96 0.89,15.47 2.22,30.97 3.98,46.48 1.37,7.93 2.46,15.47 3.32,22.58 l 1.37,5.98 0.62,6.64 2,11.29 c 10.19,62.42 26.99,121.29 50.5,176.64 23.44,56.17 55.74,103.98 96.88,143.36 21.29,19.49 44.29,34.76 69.1,45.86 24.73,10.58 50.43,16.32 76.99,17.22 54.92,0.47 101.8,-16.6 140.78,-51.09 18.56,-16.8 32.97,-36.1 43.13,-57.78 10.66,-21.71 15.74,-44.06 15.27,-67.07 -2.65,-47.77 -22.11,-85.19 -58.4,-112.22 -17.3,-11.92 -36.33,-19.92 -57.11,-23.91 -20.82,-3.51 -41.17,-3.51 -61.05,0 -19.92,3.99 -37.7,11.33 -53.13,21.96 -15.11,10.62 -26.56,23.63 -34.57,39.14 -0.86,1.79 -1.52,3.32 -1.95,4.68 -3.12,15.04 -3.79,28.99 -2.03,41.8 5.35,21.29 13.48,38.09 24.61,50.47 10.62,11.95 19.88,19.92 27.85,23.91 7.97,3.94 12.19,5.5 12.66,4.64 -1.84,-0.43 -12.43,-11.95 -31.92,-34.49 -8.83,-11.99 -15.04,-27.26 -18.55,-45.86 -1.8,-22.58 1.76,-37.81 10.62,-45.82 8.83,-7.5 13.91,-11.05 15.24,-10.62 33.67,-12.82 61.72,-3.52 84.33,27.89 14.61,19.92 19.92,43.16 15.94,69.72 -1.76,32.31 4.22,54.69 17.89,67.07 13.75,12.39 21.76,18.17 23.91,17.27 -65.51,14.57 -113.95,9.73 -145.39,-14.61 -30.98,-24.34 -46.25,-38.98 -45.78,-43.83 -2.23,-3.12 -4.22,-6.44 -5.98,-9.96 -9.77,-14.57 -15.98,-31.44 -18.63,-50.47 0,0 -0.2,0 -0.67,0 -6.64,4.46 -13.71,7.31 -21.21,8.64 -6.64,1.32 -13.28,1.79 -19.92,1.32 -7.54,-0.89 -14.18,-2.85 -19.92,-5.97 -11.99,-7.07 -19.73,-15.94 -23.25,-26.57 -3.98,-10.62 -4.45,-20.35 -1.32,-29.21 3.98,-7.97 8.86,-13.29 14.61,-15.9 10.62,-4.03 16.4,-4.69 17.26,-2.03 -0.47,0.86 -4.18,4.18 -11.29,9.96 -3.12,3.12 -5.31,7.11 -6.64,11.99 -0.47,5.74 0.86,11.72 3.99,17.89 3.51,6.21 8.82,11.09 15.93,14.61 3.99,1.37 7.74,1.99 11.29,1.99 4.85,0 9.69,-0.43 14.57,-1.33 8.87,-2.22 16.21,-7.5 21.96,-15.9 4.41,-6.25 8.4,-13.28 11.91,-21.28 1.37,-3.99 2.85,-7.97 4.69,-11.92 9.69,-19.92 23.87,-36.99 42.5,-51.13 19.02,-13.28 40.51,-22.58 64.33,-27.93 23.52,-4.81 47.66,-5.27 72.43,-1.29 25.23,3.98 49.14,13.48 71.68,28.52 46.01,32.81 70.82,78.78 74.41,138.16 0.86,28.71 -4.69,56.41 -16.6,82.97 -12.42,26.56 -29.45,50 -51.17,70.35 -46.45,41.64 -102.43,62.66 -167.93,63.09 -19.53,-0.43 -38.56,-3.09 -57.11,-7.93 0.86,0.39 1.52,1.05 1.95,1.95 19.49,23.05 33.4,48.91 41.88,77.69 15.03,60.2 6.64,115.32 -25.28,165.32 -15.47,23.94 -34.29,43.83 -56.44,59.76 -22.54,15.94 -46.88,27.23 -73.05,33.87 -53.09,13.71 -103.32,10.62 -150.66,-9.26 -23.52,-9.76 -43.83,-23.04 -61.1,-39.84 -18.16,-17.74 -31.25,-37.89 -39.18,-60.43 -15.04,-46.49 -10.43,-89.45 13.95,-128.83 11.48,-18.12 26.09,-32.77 43.79,-43.83 17.26,-11.09 35.62,-18.36 55.15,-21.91 37.19,-6.17 70.59,-0.63 100.24,16.6 37.61,15.08 66.83,54.45 87.61,118.2 -0.39,-2.22 -9.96,-6.21 -28.51,-11.99 -18.17,-5.74 -41.41,0.9 -69.73,19.92 -22.54,17.74 -46.68,25.28 -72.34,22.62 -40.74,-3.13 -63.99,-22.81 -69.73,-59.14 -1.37,-0.86 -0.9,-7.27 1.29,-19.22 2.66,-11.95 14.84,-23.24 36.52,-33.91 18.64,-6.17 35.63,-8.59 51.14,-7.22 30.58,5.27 46.72,8.59 48.47,9.92 0.47,-0.86 -3.12,-3.75 -10.66,-8.63 -8.4,-4.89 -20.51,-8.83 -36.48,-11.96 -17.23,-3.08 -36.96,-1.56 -59.11,4.61 -13.67,6.25 -26.56,14.65 -38.47,25.28 -0.47,0 -0.71,0 -0.71,0 -4.37,5.31 -8.39,10.86 -11.91,16.6 -18.16,30.97 -21.05,65.04 -8.67,102.22 6.64,17.31 17.07,32.54 31.25,45.82 15.04,13.76 32.03,24.58 51.09,32.54 39.85,15.98 81.92,17.93 126.13,6.02 21.76,-6.25 41.68,-15.98 59.77,-29.26 18.63,-13.71 33.87,-30.31 45.86,-49.8 25.2,-40.74 31.64,-84.96 19.26,-132.82 -6.64,-22.96 -17.97,-43.75 -33.91,-62.38 -15.9,-18.55 -35.43,-34.1 -58.4,-46.48 -46.95,-24.81 -98.28,-42.03 -154.06,-51.76 -55.74,-10.63 -112.66,-16.6 -170.66,-17.97 h -10.59 c -28.79,-1.29 -57.11,-0.66 -85,2.03 -28.32,2.66 -55.98,7.07 -83.01,13.28 -54.88,11.49 -104.88,30.98 -150.04,58.4 -11.05,7.11 -21.44,14.65 -31.17,22.58 -9.76,7.54 -18.4,15.94 -25.9,25.27 -15.11,19.46 -25.27,40.43 -30.54,63.05 -10.199,48.24 -2.039,92.3 24.53,132.15 12.85,19.02 28.59,34.96 47.15,47.77 19.02,12.38 39.18,21.45 60.43,27.23 44.25,10.62 86.09,7.5 125.46,-9.3 19.07,-8.4 35.67,-19.45 49.81,-33.2 13.75,-13.75 23.71,-29.42 29.88,-47.15 11.1,-36.72 7.31,-70.39 -11.25,-100.9 -3.98,-6.21 -8.47,-11.76 -13.28,-16.6 -11.99,-9.73 -23.71,-17.27 -35.23,-22.62 -22.11,-6.17 -41.8,-7.69 -59.07,-4.61 -16.4,3.13 -28.55,7.07 -36.52,11.96 -8.01,4.88 -11.52,7.77 -10.62,8.63 1.32,-1.33 17.46,-4.65 48.47,-9.92 15.47,-1.37 32.54,1.05 51.1,7.22 21.68,10.67 33.67,21.96 35.86,33.91 2.69,11.95 3.32,18.36 2.03,19.22 -5.79,36.33 -29.03,56.01 -69.73,59.14 -25.66,2.66 -49.8,-4.88 -72.38,-22.62 -28.36,-19.02 -51.8,-25.66 -70.39,-19.92 -18.13,5.78 -27.7,9.77 -28.56,11.99 18.6,-58.47 44.96,-96.29 79.03,-113.55 0.89,-0.47 1.52,-0.9 1.99,-1.33 29.65,-19.45 64.18,-26.33 103.59,-20.55 19.02,3.05 37.38,9.96 55.08,20.55 17.73,10.63 32.54,25.04 44.49,43.13 25.24,38.08 30.98,80.58 17.31,127.5 -7.54,22.57 -19.93,42.69 -37.23,60.43 -16.8,17.3 -36.49,31.21 -59.06,41.83 -46.96,20.78 -96.96,25.24 -150.08,13.28 -26.13,-6.17 -50.47,-16.83 -73.01,-31.87 -23.05,-15.51 -42.499,-34.73 -58.48,-57.78 -33.628,-48.24 -44.449,-102.46 -32.531,-162.65 7.102,-29.22 19.922,-55.78 38.551,-79.69 2.191,-2.66 4.41,-5.08 6.641,-7.3 -17.262,3.98 -34.532,6.21 -51.84,6.64 -65.891,-0.43 -122.141,-21.45 -168.629,-63.09 -21.684,-20.35 -38.75,-43.79 -51.133,-70.35 -11.918,-26.56 -17.5,-54.26 -16.598,-82.97 3.59,-59.38 28.36,-105.35 74.368,-138.16 22.582,-15.04 46.492,-24.54 71.679,-28.52 24.813,-3.98 48.953,-3.52 72.422,1.29 23.871,5.35 45.36,14.65 64.379,27.93 18.631,14.14 32.771,31.21 42.501,51.13 0,0 0,0.2 0,0.63 l 0.66,-0.63 c 5.75,13.28 11.53,24.34 17.27,33.2 5.78,8.4 13.08,13.68 21.91,15.9 4.85,0.9 9.73,1.33 14.61,1.33 3.52,0 7.31,-0.62 11.33,-1.99 7.03,-3.52 12.38,-8.4 15.9,-14.61 3.55,-6.64 4.88,-12.62 4.02,-17.89 -1.37,-4.88 -3.59,-8.87 -6.64,-11.99 -7.11,-5.78 -10.86,-9.1 -11.33,-9.96 0.9,-2.66 6.64,-2 17.27,2.03 5.78,2.15 10.62,7.5 14.57,15.9 3.12,8.86 2.93,18.59 -0.63,29.21 -3.98,10.63 -11.95,19.5 -23.9,26.57 -5.74,3.12 -12.38,5.08 -19.92,5.97 -6.64,0.47 -13.29,0 -19.93,-1.32 -7.5,-1.33 -14.6,-4.18 -21.25,-8.64 -0.89,-0.43 -1.56,-0.9 -1.95,-1.33 -1.8,15.94 -6.44,30.59 -13.98,43.87 -2.23,6.17 -5.28,12.11 -9.26,17.89 0.39,4.85 -14.84,19.49 -45.821,43.83 -31.449,24.34 -79.918,29.18 -145.43,14.61 2.231,0.9 10.191,-4.88 23.91,-17.27 13.75,-11.99 19.68,-34.33 17.922,-67.07 -3.98,-26.56 1.289,-49.8 15.938,-69.72 23.011,-31.41 51.14,-40.71 84.339,-27.89 1.293,-0.43 6.372,3.12 15.274,10.62 9.258,8.01 12.808,23.24 10.629,45.82 -3.563,18.6 -9.77,33.87 -18.641,45.86 -19.449,22.54 -30.07,34.06 -31.832,34.49 0.473,0.86 4.652,-0.7 12.582,-4.64 8,-3.99 17.301,-11.96 27.93,-23.91 11.051,-12.38 19.21,-29.18 24.53,-50.47 1.33,-10.62 1.13,-22.77 -0.63,-36.52 -1.36,-3.52 -2.89,-6.84 -4.69,-9.96 -7.96,-15.51 -19.448,-28.52 -34.53,-39.14 -15.469,-10.63 -33.2,-17.97 -53.122,-21.96 -19.918,-3.51 -40.238,-3.51 -61.058,0 -20.391,3.99 -39.41,11.99 -57.11,23.91 -36.281,27.03 -55.742,64.45 -58.39,112.22 0,23.01 5.07,45.36 15.23,67.07 10.2,21.68 24.61,40.98 43.16,57.78 38.95,34.49 85.86,51.56 140.79,51.09 26.558,-0.9 52.46,-6.64 77.65,-17.22 24.81,-11.53 47.62,-26.84 68.44,-45.86 41.13,-39.38 73.44,-87.19 96.87,-143.36 23.52,-55.35 40.32,-114.22 50.47,-176.64 l 2.03,-11.29 0.63,-6.64 1.37,-5.98 c 1.32,-7.11 2.42,-14.65 3.32,-22.58 1.75,-15.51 3.08,-31.01 3.98,-46.48 1.29,-31.88 0.67,-63.52 -2.03,-94.96 -4.84,-64.18 -21.02,-123.91 -48.44,-179.26 -6.64,-13.28 -14.18,-26.1 -22.58,-38.52 -8.86,-11.48 -18.63,-22.34 -29.21,-32.5 -21.25,-20.39 -45.4,-36.09 -72.39,-47.15 -55.78,-21.67 -111.329,-24.14 -166.642,-7.34 -54.918,17.77 -97.148,49.61 -126.789,95.63 -27.929,46.48 -38.75,95.39 -32.539,146.75 7.539,50.94 28.32,93.6 62.379,128.17 35.391,32.3 76.172,48.44 122.191,48.44 46.911,0.46 85.43,-13.48 115.5,-41.8 5.36,-5.78 9.97,-11.8 13.95,-17.97 8.4,-18.55 12.42,-34.26 11.95,-47.15 -0.9,-29.18 -6.64,-53.51 -17.22,-73.01 -10.24,-18.16 -19.93,-30.97 -29.26,-38.51 -9.3,-7.5 -14.38,-10.63 -15.27,-9.26 2.26,1.29 12.61,19.22 31.24,53.71 8.4,18.17 12.15,39.45 11.26,63.75 -3.99,30.12 -12.82,49.14 -26.57,57.11 -13.67,7.54 -21.48,10.66 -23.24,9.3 -47.34,7.54 -80.98,-12.39 -100.898,-59.77 -13.281,-29.65 -13.75,-61.29 -1.332,-94.92 11.922,-41.17 10.82,-71.72 -3.32,-91.64 -14.641,-19.92 -23.43,-29.65 -26.559,-29.22 62.848,-2.66 111.328,7.3 145.389,29.88 34.1,22.58 57.31,45.2 69.73,67.74 1.33,1.76 2.42,3.55 3.32,5.31 8.87,16.37 13.28,25.23 13.28,26.56 6.64,17.27 9.53,35.2 8.67,53.79 -0.47,41.17 -15.74,78.56 -45.86,112.19 -7.07,7.97 -15.27,15.31 -24.53,21.95 15.04,-2.69 29.38,-2.46 43.13,0.63 31.87,7.97 56.87,28.79 75.03,62.42 7.97,12.81 13.95,27.19 17.93,43.16 -0.46,-7.11 -17.73,-6.4 -51.83,2 -30.47,12.81 -58.87,16.36 -84.96,10.62 -33.67,-8.01 -59.53,-30.35 -77.701,-67.07 18.171,-5.27 35.632,-8.59 52.501,-9.96 21.21,-1.37 40.04,-0.47 56.45,2.66 32.3,9.25 49.33,14.14 51.09,14.6 1.76,-4.88 -14.18,-14.14 -47.77,-27.89 -23.91,-7.53 -53.4,-9.1 -88.361,-4.61 -17.699,5.75 -36.059,8.6 -55.078,8.6 -54.879,1.37 -104.262,-17.46 -148.09,-56.45 -40.742,-39.84 -65.742,-89.41 -75,-148.71 -8.43,-59.76 3.789,-117.07 36.488,-171.95 15.941,-26.56 36.762,-49.81 62.422,-69.73 25.269,-19.92 53.789,-34.72 85.629,-44.49 43.82,-13.75 89.019,-16.8 135.5,-9.3 -7.54,-7.5 -14.64,-15.7 -21.29,-24.57 -17.261,-23.43 -28.511,-49.33 -33.859,-77.65 -10.632,-57.58 -0.39,-109.81 30.539,-156.722 15.51,-22.539 34.11,-41.367 55.79,-56.449 21.68,-15.039 45.19,-25.66 70.39,-31.867 51.36,-11.961 99.61,-7.071 144.72,14.609 21.72,10.617 40.51,24.609 56.45,41.828 15.51,17.742 26.56,37.391 33.2,59.102 11.95,45.159 6.41,86.329 -16.6,123.479 -4.41,7.11 -9.49,13.75 -15.27,19.92 -7.11,8.87 -15.24,16.6 -24.57,23.25 -1.29,4.84 -22.11,13.51 -62.43,25.93 -40.23,12.82 -90.03,0 -149.37,-38.55 2.23,1.33 12.38,-1.56 30.55,-8.6 18.55,-7.1 33,-27.03 43.16,-59.76 6.64,-27.93 21.02,-48.91 43.16,-63.09 34.54,-23.04 65.71,-21.95 93.64,3.32 1.75,0 5.47,5.51 11.25,16.6 5.74,11.06 3.32,27.66 -7.27,49.81 -10.23,16.37 -22.15,28.98 -35.9,37.81 -27.85,14.61 -42.89,21.95 -45.11,21.95 0.46,1.29 5.27,1.53 14.6,0.67 9.3,-1.37 21.41,-5.78 36.53,-13.28 15.94,-8.48 30.51,-22.15 43.79,-41.21 3.98,-6.64 7.5,-15.24 10.62,-25.86 4.46,-20.82 3.32,-41.6 -3.32,-62.42 -5.31,-17.27 -14.37,-32.579 -27.22,-45.86 -12.82,-13.68 -28.09,-24.73 -45.82,-33.172 -37.19,-17.218 -77.04,-20.539 -119.5,-9.957 -20.35,5.309 -39.37,14.141 -57.11,26.52 -17.22,12.898 -32.07,28.398 -44.45,46.488 -24.41,38.981 -32.34,81.481 -23.94,127.501 4.88,22.15 14.18,42.69 27.92,61.76 13.68,18.12 31.18,33.86 52.43,47.15 42.97,27.89 90.54,47.81 142.77,59.72 51.76,11.99 105.35,16.84 160.63,14.65 h 9.96 c 55.82,-0.9 110.23,-6.64 163.36,-17.27 53.98,-10.19 102.69,-27.65 146.05,-52.46 21.72,-12.85 39.84,-28.32 54.49,-46.48 14.57,-18.59 24.81,-38.95 30.55,-61.09 11.05,-46.02 4.8,-88.75 -18.63,-128.129 -11.53,-19.02 -25.86,-35.231 -43.17,-48.512 -17.26,-12.82 -36.05,-22.348 -56.4,-28.52 -42.5,-11.519 -82.54,-9.3 -120.2,6.641 -18.12,8.012 -34.1,18.828 -47.77,32.539 -12.89,12.852 -22.39,27.891 -28.6,45.161 -7.07,20.82 -8.59,41.6 -4.61,62.42 3.13,11.91 6.84,21.68 11.25,29.18 13.29,19.06 27.89,32.73 43.83,41.21 15.04,7.5 27.23,11.91 36.53,13.28 9.29,0.86 14.18,0.62 14.61,-0.67 -2.23,0.4 -17.27,-6.87 -45.16,-21.95 -13.28,-8.83 -25.24,-21.44 -35.86,-37.81 -10.63,-22.15 -13.05,-38.75 -7.3,-49.81 5.74,-11.09 9.53,-16.6 11.28,-16.6 27.93,-24.802 59.11,-25.899 93.64,-3.32 22.11,14.18 36.52,35.16 43.16,63.09 10.63,32.73 25,52.66 43.16,59.76 18.56,7.04 28.76,9.93 30.55,8.6 -59.33,38.55 -109.14,51.37 -149.37,38.55 -39.85,-12.42 -60.67,-21.09 -62.46,-25.93 -8.83,-5.79 -16.33,-12.82 -22.58,-21.22 -7.5,-7.53 -13.95,-15.93 -19.22,-25.27 -22.15,-37.62 -26.56,-79.02 -13.28,-124.14 7.11,-21.679 18.83,-41.172 35.15,-58.441 16.41,-17.219 35.63,-30.969 57.78,-41.168 46.01,-20.352 94.72,-23.91 146.09,-10.621 24.81,7.109 48.01,18.59 69.73,34.57 21.25,15.43 39.14,34.961 53.79,58.391 29.65,48.249 37.81,101.139 24.53,158.679 -7.07,27.89 -19.45,53.32 -37.15,76.36 -5.35,6.64 -10.86,12.86 -16.6,18.6 47.77,-8.44 94.26,-5.55 139.41,8.63 31.88,9.77 60.39,24.57 85.67,44.49 25.66,19.92 46.68,43.17 63.08,69.73 32.31,54.88 44.22,112.19 35.82,171.95" /><path
         id="path16"
         style="fill:#de6323;fill-opacity:1;fill-rule:evenodd;stroke:none"
         d="m 916.559,2267.54 c -2.61,30.12 -19.219,46.48 -49.758,49.14 -30.981,-2.66 -47.781,-19.02 -50.473,-49.14 2.692,-30.12 19.492,-46.72 50.473,-49.77 30.539,3.05 47.148,19.65 49.758,49.77" /><path
         id="path18"
         style="fill:#de6323;fill-opacity:1;fill-rule:evenodd;stroke:none"
         d="m 1953.05,2316.68 c -30.98,-2.66 -47.85,-19.02 -50.47,-49.14 2.62,-30.12 19.49,-46.72 50.47,-49.77 30.54,3.05 47.15,19.65 49.8,49.77 -2.65,30.12 -19.26,46.48 -49.8,49.14" /><path
         id="path20"
         style="fill:#de6323;fill-opacity:1;fill-rule:evenodd;stroke:none"
         d="m 1920.51,1195.9 c -31.02,-2.66 -47.81,-19.06 -50.47,-49.14 3.12,-30.08 19.92,-46.68 50.47,-49.81 30.54,3.13 47.15,19.73 49.8,49.81 -2.65,30.08 -19.26,46.48 -49.8,49.14" /><path
         id="path22"
         style="fill:#de6323;fill-opacity:1;fill-rule:evenodd;stroke:none"
         d="m 888.051,1195.9 c -31.02,-2.66 -47.821,-19.06 -50.473,-49.14 3.121,-30.08 19.922,-46.68 50.473,-49.81 30.539,3.13 47.148,19.73 49.801,49.81 -2.653,30.08 -19.262,46.48 -49.801,49.14" /><path
         id="path24"
         style="fill:#de6323;fill-opacity:1;fill-rule:evenodd;stroke:none"
         d="m 1374.73,1151.41 c 1.75,-17.74 11.72,-27.43 29.88,-29.18 17.73,1.75 27.42,11.44 29.18,29.18 -1.29,17.69 -11.06,27.46 -29.18,29.21 -18.16,-1.75 -28.13,-11.52 -29.88,-29.21" /><path
         id="path26"
         style="fill:#de6323;fill-opacity:1;fill-rule:evenodd;stroke:none"
         d="m 1359.45,1241.72 c -18.12,-1.8 -28.08,-11.49 -29.88,-29.26 1.8,-17.66 11.76,-27.42 29.88,-29.18 17.7,1.76 27.46,11.52 29.22,29.18 -1.37,17.77 -11.05,27.46 -29.22,29.26" /><path
         id="path28"
         style="fill:#de6323;fill-opacity:1;fill-rule:evenodd;stroke:none"
         d="m 1450.39,1183.28 c 17.73,1.76 27.46,11.52 29.26,29.18 -1.33,17.77 -11.1,27.46 -29.26,29.26 -18.09,-1.8 -28.05,-11.49 -29.88,-29.26 1.83,-17.66 11.79,-27.42 29.88,-29.18" /><path
         id="path30"
         style="fill:#de6323;fill-opacity:1;fill-rule:evenodd;stroke:none"
         d="m 1413.24,1941.52 c -21.25,11.06 -40.7,17.5 -58.44,19.26 5.36,-19.45 9.54,-38.94 12.62,-58.4 5.74,-34.57 9.53,-67.73 11.29,-99.61 3.13,-64.22 2.42,-120.39 -1.95,-168.67 -9.77,-99.14 -17.78,-150.04 -23.95,-152.73 -1.76,4.02 0,55.15 5.31,153.4 1.76,47.81 0.47,103.12 -3.98,165.97 -2.66,31.45 -6.87,63.75 -12.62,96.96 -3.98,21.28 -9.1,42.69 -15.27,64.45 -41.6,-8.01 -63.28,-14.85 -65.08,-20.63 6.21,-5.31 20.39,-57.77 42.54,-157.34 22.54,-99.61 16.8,-215.82 -17.26,-348.59 -0.9,-1.29 -1.8,-6.84 -2.66,-16.61 -0.47,-10.15 5.27,-15.93 17.23,-17.26 h 219.1 c 11.52,1.8 16.4,7.5 14.61,17.26 -1.76,9.77 -3.32,15.32 -4.65,16.61 -34.1,133.24 -39.85,249.64 -17.23,349.25 22.58,99.11 36.72,151.37 42.5,156.68 -0.47,-3.08 -13.51,-8.86 -39.18,-17.26 -25.66,-8.87 -60,-3.09 -102.93,17.26" /><path
         id="path32"
         style="fill:#de6323;fill-opacity:1;fill-rule:evenodd;stroke:none"
         d="m 1657.58,1694.53 c -24.34,-2.19 -37.62,-15.27 -39.85,-39.18 2.23,-23.9 15.51,-36.99 39.85,-39.14 24.33,2.15 37.62,15.24 39.84,39.14 -2.22,23.91 -15.51,36.99 -39.84,39.18" /><path
         id="path34"
         style="fill:#de6323;fill-opacity:1;fill-rule:evenodd;stroke:none"
         d="m 1148.28,1694.53 c -24.3,-2.19 -37.58,-15.27 -39.84,-39.18 2.26,-23.9 15.54,-36.99 39.84,-39.14 24.38,2.15 37.66,15.24 39.84,39.14 -2.18,23.91 -15.46,36.99 -39.84,39.18" /><path
         id="path36"
         style="fill:#de6323;fill-opacity:1;fill-rule:evenodd;stroke:none"
         d="m 1445.12,2268.87 c -2.23,23.01 -15.04,35.62 -38.52,37.85 -23.48,-2.23 -36.29,-14.84 -38.51,-37.85 2.22,-23.05 15.03,-35.67 38.51,-37.82 23.48,2.15 36.29,14.77 38.52,37.82" /><path
         id="path38"
         style="fill:#de6323;fill-opacity:1;fill-rule:evenodd;stroke:none"
         d="m 1310.35,2178.55 c 2.19,-25.23 16.33,-38.98 42.46,-41.13 25.71,2.15 39.65,15.9 41.84,41.13 -2.19,25.67 -16.13,39.61 -41.84,41.84 -26.13,-2.23 -40.27,-16.17 -42.46,-41.84" /><path
         id="path40"
         style="fill:#de6323;fill-opacity:1;fill-rule:evenodd;stroke:none"
         d="m 1462.38,2140.74 c 25.67,2.15 39.61,15.9 41.8,41.14 -2.19,25.66 -16.13,39.6 -41.8,41.83 -26.13,-2.23 -40.31,-16.17 -42.5,-41.83 2.19,-25.24 16.37,-38.99 42.5,-41.14" /><path
         id="path42"
         style="fill:#de6323;fill-opacity:1;fill-rule:evenodd;stroke:none"
         d="m 1316.99,2519.88 c 10.59,-5.78 21.21,-13.98 31.84,-24.61 19.92,-26.09 30.08,-41.79 30.55,-47.15 3.12,3.52 2.65,23.91 -1.33,61.1 -3.56,17.69 -10.63,33.87 -21.21,48.48 -11.14,13.71 -20.39,22.34 -27.93,25.85 -13.29,6.65 -25.2,8.01 -35.82,3.99 -10.2,-4.38 -16.21,-11.25 -17.97,-20.59 -1.76,-9.68 0.19,-17.69 5.97,-23.86 10.2,-8.87 22.15,-16.61 35.9,-23.21" /><path
         id="path44"
         style="fill:#de6323;fill-opacity:1;fill-rule:evenodd;stroke:none"
         d="m 1431.84,2448.12 c 0.86,5.36 11.28,21.06 31.21,47.15 10.15,10.63 20.54,18.83 31.17,24.61 13.75,6.6 25.7,14.34 35.86,23.21 5.74,6.17 7.77,14.18 6.01,23.86 -1.36,9.34 -7.11,16.21 -17.26,20.59 -10.67,4.02 -22.85,2.66 -36.53,-3.99 -7.53,-3.51 -16.79,-12.14 -27.92,-25.85 -10.63,-14.61 -17.66,-30.79 -21.22,-48.48 -3.55,-37.19 -3.98,-57.58 -1.32,-61.1" /><path
         id="path46"
         style="fill:#de6323;fill-opacity:1;fill-rule:evenodd;stroke:none"
         d="m 1437.81,2607.46 c -1.79,19.92 -12.81,30.78 -33.2,32.54 -19.92,-1.76 -30.78,-12.62 -32.54,-32.54 1.37,-12.38 6.84,-32.5 16.6,-60.43 9.3,-27.85 14.61,-43.55 15.94,-47.07 1.33,3.52 6.84,19.22 16.6,47.07 9.73,27.93 15.27,48.05 16.6,60.43" /><path
         id="path48"
         style="fill:#de6323;fill-opacity:1;fill-rule:evenodd;stroke:none"
         d="m 1494.22,881.172 c -10.16,5.348 -20.59,13.277 -31.17,23.906 -19.93,26.563 -30.35,42.5 -31.21,47.852 -2.66,-3.59 -2.23,-24.141 1.32,-61.801 3.95,-17.258 11.06,-33.199 21.22,-47.77 11.13,-14.179 20.39,-23.05 27.92,-26.558 13.68,-6.211 25.86,-7.313 36.53,-3.321 9.72,4.411 15.43,11.25 17.26,20.54 1.76,9.769 -0.27,17.742 -6.01,23.91 -10.16,8.871 -22.11,16.601 -35.86,23.242" /><path
         id="path50"
         style="fill:#de6323;fill-opacity:1;fill-rule:evenodd;stroke:none"
         d="m 1379.38,952.93 c -0.47,-5.352 -10.63,-21.289 -30.55,-47.852 -10.63,-10.629 -21.25,-18.558 -31.84,-23.906 -13.75,-6.641 -25.7,-14.371 -35.9,-23.242 -5.31,-6.641 -7.26,-14.571 -5.97,-23.91 1.76,-9.68 7.77,-16.598 17.97,-20.54 10.15,-3.992 22.07,-2.89 35.82,3.321 7.54,3.508 16.79,12.379 27.93,26.558 10.58,14.571 17.65,30.512 21.21,47.77 3.98,37.66 4.45,58.211 1.33,61.801" /><path
         id="path52"
         style="fill:#de6323;fill-opacity:1;fill-rule:evenodd;stroke:none"
         d="m 1373.44,792.891 c 1.76,-19.922 12.58,-30.782 32.5,-32.539 20.35,1.757 31.44,12.617 33.2,32.539 -1.33,12.379 -6.84,32.5 -16.6,60.429 -9.3,27.852 -14.84,43.559 -16.6,47.11 -1.33,-3.551 -6.64,-19.258 -15.94,-47.11 -9.73,-27.929 -15.27,-48.05 -16.56,-60.429" /><path
         id="path54"
         style="fill:#de6323;fill-opacity:1;fill-rule:evenodd;stroke:none"
         d="m 732.031,1725.08 c -17.73,-3.52 -34.101,-10.43 -49.14,-20.59 -14.141,-11.05 -23.012,-20.35 -26.563,-27.85 -6.637,-13.28 -7.969,-25.08 -3.988,-35.23 4.422,-10.16 11.531,-16.14 21.211,-17.89 9.769,-1.37 17.738,0.89 23.91,6.64 9.301,9.68 17.309,21.21 23.949,34.49 5.738,10.62 13.942,21.05 24.57,31.21 26.95,19.45 43.161,29.69 48.43,30.59 -3.512,2.61 -24.332,2.14 -62.379,-1.37" /><path
         id="path56"
         style="fill:#de6323;fill-opacity:1;fill-rule:evenodd;stroke:none"
         d="m 721.41,1839.3 c -6.64,13.28 -14.648,25 -23.949,35.15 -6.172,5.32 -14.141,7.35 -23.91,5.98 -9.68,-1.76 -16.789,-7.5 -21.211,-17.27 -3.981,-10.58 -2.649,-22.57 3.988,-35.86 3.551,-7.03 12.422,-16.13 26.563,-27.22 15.039,-10.16 31.41,-16.99 49.14,-20.55 38.047,-3.98 58.867,-4.45 62.379,-1.33 -5.269,0.47 -21.48,10.43 -48.43,29.89 -10.628,10.62 -18.832,21.01 -24.57,31.21" /><path
         id="path58"
         style="fill:#de6323;fill-opacity:1;fill-rule:evenodd;stroke:none"
         d="m 632.422,1783.48 c -20.391,-1.76 -31.442,-12.58 -33.203,-32.5 1.761,-19.46 12.812,-30.12 33.203,-31.88 12.379,1.33 33.008,6.64 61.719,15.94 28.32,9.3 44.3,14.61 47.847,15.94 -3.547,1.32 -19.527,6.83 -47.847,16.6 -28.711,9.26 -49.34,14.61 -61.719,15.9" /><path
         id="path60"
         style="fill:#de6323;fill-opacity:1;fill-rule:evenodd;stroke:none"
         d="m 2076.56,1784.84 c 17.66,3.52 34.06,10.43 49.1,20.59 14.18,10.62 23.05,19.73 26.57,27.23 6.64,13.28 8,25.23 3.98,35.86 -4.45,9.72 -11.52,15.43 -21.25,17.26 -9.76,1.29 -17.69,-0.66 -23.91,-6.01 -9.29,-10.16 -17.22,-21.88 -23.86,-35.16 -5.78,-10.2 -13.95,-20.63 -24.61,-31.25 -26.99,-19.45 -43.13,-29.41 -48.44,-29.88 3.52,-3.05 24.34,-2.62 62.42,1.36" /><path
         id="path62"
         style="fill:#de6323;fill-opacity:1;fill-rule:evenodd;stroke:none"
         d="m 2125.66,1709.14 c -15.04,10.2 -31.44,17.03 -49.1,20.63 -38.08,3.51 -58.9,3.9 -62.42,1.28 5.31,-0.89 21.45,-11.05 48.44,-30.54 10.66,-10.2 18.83,-20.55 24.61,-31.17 6.64,-13.29 14.57,-24.81 23.86,-34.57 6.22,-5.75 14.15,-7.93 23.91,-6.65 9.73,1.76 16.8,7.78 21.25,17.97 4.02,10.16 2.66,21.88 -3.98,35.16 -3.52,7.5 -12.39,16.8 -26.57,27.89" /><path
         id="path64"
         style="fill:#de6323;fill-opacity:1;fill-rule:evenodd;stroke:none"
         d="m 2176.8,1790.12 c -12.85,-1.29 -33.44,-6.64 -61.76,-15.9 -28.32,-9.77 -44.26,-15.27 -47.77,-16.6 3.51,-1.33 19.45,-6.64 47.77,-15.94 28.32,-9.3 48.91,-14.65 61.76,-15.94 19.92,1.76 30.97,12.42 33.2,31.88 -2.23,19.92 -13.28,30.74 -33.2,32.5" /><path
         id="path66"
         style="fill:#de6426;fill-opacity:1;fill-rule:nonzero;stroke:none"
         d="m 258.051,212.77 h 14.527 l -9.527,-71.559 H 8.05078 v 13.437 c 8.93752,-0.937 17.33982,0.864 25.14842,5.473 7.8906,4.68 11.8789,11.008 11.8789,19.059 v 272.031 c 0,6.328 -7.5,11.168 -22.5,14.527 -5,0.942 -12.5,2.071 -22.499975,3.442 v 12.968 H 138.98 V 470.27 c -14.289,-1.36 -24.761,-3.04 -31.402,-5 -11.6796,-3.36 -17.4999,-8.2 -17.4999,-14.532 V 180.27 c 0,-5 1.4414,-9.532 4.3711,-13.59 3.0117,-3.981 7.0308,-5.942 12.0308,-5.942 h 92.969 c 16.02,0 29.071,4.614 39.071,13.91 10,9.372 16.48,22.071 19.531,38.122 z m 240.578,156.878 v -13.437 c -15,0 -25.391,-6.172 -31.09,-18.441 L 346.602,66.2109 C 335.98,42.2695 328.48,27.7695 324.102,22.7695 313.48,10.3906 297.77,4.17969 277.07,4.17969 c -9.3,0 -16.25,0.9414 -20.941,2.80859 -4.68,1.80078 -8.199,4.53122 -10.469,8.28122 l 11.879,32.9688 c 4.063,0 9.301,-2.5391 15.781,-7.6485 6.559,-5.1992 12.969,-7.8203 19.219,-7.8203 10.699,0 19.262,6.1797 25.621,18.4414 l 33.91,67.5001 c 0.7,1.68 1.25,3.668 1.559,5.937 0,2.114 0.16,4.141 0.473,6.09 l -82.032,203.91 c -2.621,7.071 -6.84,12.422 -12.66,16.09 -5.859,3.641 -12.609,5.473 -20.308,5.473 v 13.437 H 352.07 v -13.437 c -4.691,0 -9.691,-0.551 -15,-1.563 -13.359,-2.617 -20,-6.949 -20,-12.968 0,-0.629 0.352,-1.95 1.09,-3.91 l 60.469,-153.59 60.473,146.558 c 1.636,5 2.5,8.481 2.5,10.473 0,6.328 -3.872,10.508 -11.563,12.5 -10.309,1.328 -17.617,2.187 -21.879,2.5 v 13.437 z" /><path
         id="path68"
         style="fill:#de6426;fill-opacity:1;fill-rule:nonzero;stroke:none"
         d="m 683.949,494.648 -7.039,-38.91 c -3.672,0 -10.781,2.5 -21.398,7.5 -5.742,2.582 -10.282,3.91 -13.602,3.91 -10.308,0 -19.211,-2.617 -26.711,-7.808 -7.5,-5.121 -11.25,-12.149 -11.25,-21.102 v -82.027 h 62.5 V 332.77 h -62.5 V 166.68 c 0,-5.942 2.531,-9.77 7.653,-11.41 5.199,-1.68 12.66,-2.5 22.347,-2.5 6.321,0 10.852,0 13.59,0 v -11.559 h -125 v 11.559 c 3.32,-0.43 5.981,-0.622 7.973,-0.622 8.937,0 15.937,0.661 20.937,2.032 8,2.379 12.031,6.25 12.031,11.558 V 331.68 h -30.941 v 12.5 l 30.941,12.031 v 50.469 c 0,16.332 12.34,36.019 37.032,59.058 24.687,23.012 43.668,34.532 57.027,34.532 2.582,0 6.441,-0.7 11.563,-2.032 5.199,-1.359 10.16,-2.578 14.847,-3.59 z" /><path
         id="path70"
         style="fill:#de6426;fill-opacity:1;fill-rule:nonzero;stroke:none"
         d="m 818.551,373.711 c 24.57,-3.051 44.73,-13.359 60.469,-30.941 14.261,-16.051 24.421,-37.418 30.468,-64.059 L 849.02,257.148 H 740.43 c 0,-21.988 5.66,-42.308 17.031,-60.937 13.008,-21.371 29.219,-32.891 48.59,-34.531 2.269,-0.309 4.57,-0.469 6.879,-0.469 2.07,0 4.261,0 6.558,0 13.012,0 24.852,1.488 35.473,4.527 10.699,3.012 23.051,7.852 37.027,14.532 l 2.973,-4.059 c -4.691,-13.672 -14.02,-24.18 -27.973,-31.563 -12.297,-6.25 -27.148,-9.378 -44.527,-9.378 -36.992,0 -66.992,9.3 -90,27.968 -26.371,21.332 -39.531,52.032 -39.531,92.032 0,30.941 10.39,58.519 31.25,82.82 20.82,24.371 47.07,36.558 78.75,36.558 1.64,0 3.832,-0.117 6.558,-0.308 2.703,-0.121 5.711,-0.32 9.063,-0.629 z m -77.031,-97.5 h 120.941 c 0.309,3.008 0.469,5.199 0.469,6.559 0,17.582 -4.489,33.75 -13.442,48.441 -10.308,16.641 -23.117,25 -38.437,25 -26.051,0 -44.762,-8.199 -56.09,-24.531 -8.981,-13.051 -13.441,-31.52 -13.441,-55.469 z" /><path
         id="path72"
         style="fill:#de6426;fill-opacity:1;fill-rule:nonzero;stroke:none"
         d="m 1515.12,212.77 -5,-71.559 h -256.1 v 13.437 c 1.64,-0.628 4.53,-0.937 8.6,-0.937 8.32,0 15.82,2.66 22.5,7.969 6.64,5.308 10,12.109 10,20.468 v 260 c 0,11.332 -5.16,18.832 -15.47,22.5 -4.06,1.332 -14.92,2.852 -32.5,4.532 v 12.968 h 257.97 l 2.97,-3.91 -7.04,-58.59 h -14.53 v 26.09 c 0,5.633 -1.48,9.774 -4.37,12.5 -4.06,3.641 -11.1,5.473 -21.1,5.473 h -118.9 V 326.68 l 2.97,-0.942 h 99.53 c 7.26,0 12.07,7.114 14.37,21.41 0.71,4.692 1.1,11.872 1.1,21.563 h 12.97 V 268.238 h -12.97 c 0,8.641 -0.39,14.922 -1.1,18.91 -1.99,12.692 -6.79,19.063 -14.37,19.063 h -99.53 l -2.97,-4.063 v -141.41 h 125 c 13.94,0 24.1,8.641 30.47,25.942 1.95,5.699 3.79,14.41 5.47,26.09 z" /><path
         id="path74"
         style="fill:#de6426;fill-opacity:1;fill-rule:nonzero;stroke:none"
         d="m 1806.84,368.711 v -10.473 c -9.07,0 -15.55,-1.636 -19.38,-4.84 -3.75,-3.128 -6.99,-7.886 -9.69,-14.218 l -90.93,-200 h -26.57 l -82.97,198.59 c -4.37,9.57 -9.37,15.71 -15,18.441 -3.04,1.328 -8.39,2.027 -16.09,2.027 v 11.41 h 113.13 v -11.41 c -1.68,0.313 -4.38,0.473 -8.13,0.473 -7.93,0 -14.37,-1.371 -19.37,-4.063 -5,-2.617 -7.5,-7.269 -7.5,-13.91 0,-3.668 0.97,-7.968 2.96,-12.968 l 59.54,-143.59 59.37,145.468 c 1.64,4.372 2.5,8.051 2.5,11.09 0,6.961 -3.2,11.602 -9.53,13.91 -6.25,2.383 -14.22,3.59 -23.91,3.59 v 10.473 z" /><path
         id="path76"
         style="fill:#de6426;fill-opacity:1;fill-rule:nonzero;stroke:none"
         d="m 1958.2,373.711 c 24.57,-3.051 44.73,-13.359 60.47,-30.941 14.26,-16.051 24.42,-37.418 30.47,-64.059 l -60.47,-21.563 h -108.59 c 0,-21.988 5.66,-42.308 17.03,-60.937 13.01,-21.371 29.22,-32.891 48.59,-34.531 2.27,-0.309 4.57,-0.469 6.88,-0.469 2.07,0 4.26,0 6.56,0 13.01,0 24.84,1.488 35.47,4.527 10.7,3.012 23.05,7.852 37.03,14.532 l 2.97,-4.059 c -4.69,-13.672 -14.02,-24.18 -27.97,-31.563 -12.3,-6.25 -27.15,-9.378 -44.53,-9.378 -36.99,0 -66.99,9.3 -90,27.968 -26.37,21.332 -39.53,52.032 -39.53,92.032 0,30.941 10.39,58.519 31.25,82.82 20.82,24.371 47.07,36.558 78.75,36.558 1.64,0 3.83,-0.117 6.56,-0.308 2.7,-0.121 5.7,-0.32 9.06,-0.629 z m -77.03,-97.5 h 120.94 c 0.31,3.008 0.47,5.199 0.47,6.559 0,17.582 -4.49,33.75 -13.44,48.441 -10.31,16.641 -23.12,25 -38.44,25 -26.05,0 -44.76,-8.199 -56.09,-24.531 -8.99,-13.051 -13.44,-31.52 -13.44,-55.469 z" /><path
         id="path78"
         style="fill:#de6426;fill-opacity:1;fill-rule:nonzero;stroke:none"
         d="m 2355.62,152.77 v -11.559 h -80.93 V 297.77 c 0,13.32 -5.71,24.218 -17.03,32.66 -11.37,8.519 -24.34,12.808 -38.91,12.808 -15,0 -28.75,-4.527 -41.25,-13.59 -12.5,-8.988 -18.75,-20.628 -18.75,-35 V 171.68 c 0,-8.36 3.32,-13.828 10,-16.41 3.95,-1.68 11.09,-2.5 21.41,-2.5 3.63,0 6.48,0 8.59,0 v -11.559 h -121.56 v 11.559 c 8.94,0.32 15.62,0.941 20,1.878 13.32,3.012 20,8.364 20,16.09 v 155 c 0,5 -2.5,8.75 -7.5,11.25 -5,2.5 -11.17,3.75 -18.44,3.75 -5.43,0 -10.43,-0.539 -15,-1.558 v 12.968 c 26.95,4.063 53.13,10.551 78.44,19.532 l 4.06,-5 v -37.969 c 10,10 18.13,17.34 24.37,22.027 19.38,14.692 36.88,22.032 52.5,22.032 21.33,0 39.69,-5.231 55,-15.622 17.39,-11.679 26.1,-26.988 26.1,-45.937 V 168.238 c 0,-5 3.05,-8.859 9.22,-11.558 6.13,-2.621 16.01,-3.91 29.68,-3.91 z" /><path
         id="path80"
         style="fill:#de6426;fill-opacity:1;fill-rule:nonzero;stroke:none"
         d="m 2461.41,356.211 h 63.43 l -5,-23.441 h -58.43 V 193.711 c 0,-8.051 2.26,-14.063 6.87,-18.121 4.69,-3.988 10.7,-5.942 18.13,-5.942 10.93,0 20.78,2.192 29.53,6.563 l 7.97,-7.5 c -8.68,-8.981 -17.35,-17.813 -26.1,-26.563 -3.67,-2.578 -12.46,-3.91 -26.4,-3.91 -13.68,0 -25.16,3.172 -34.53,9.532 -11.06,7.582 -16.57,18.441 -16.57,32.5 v 152.5 h -33.43 v 7.5 l 33.43,15.941 v 70 l 41.1,20.469 z" /><path
         id="path82"
         style="fill:#de6426;fill-opacity:1;fill-rule:nonzero;stroke:none"
         d="m 2716.95,357.148 -5.62,-50.937 h -10.94 c 0.31,1.641 0.47,3.988 0.47,7.027 0,13.321 -5.7,24.063 -17.03,32.192 -11.25,8.199 -24.38,12.34 -39.38,12.34 -13.04,0 -24.53,-3.59 -34.53,-10.782 -10,-7.187 -15,-16.789 -15,-28.75 0,-6.047 1.88,-11.988 5.63,-17.808 3.83,-5.86 8.12,-9.45 12.81,-10.782 l 82.03,-22.5 c 11.64,-2.929 20.86,-9.609 27.66,-20 6.87,-10.308 10.31,-21.488 10.31,-33.437 0,-23.359 -8.87,-42.34 -26.56,-57.031 -17.62,-14.692 -42.42,-22.032 -74.38,-22.032 -25.31,0 -49.84,3.872 -73.59,11.563 l 8.59,66.559 h 10.94 c 0,-11.36 0.51,-20.231 1.56,-26.559 1.64,-6.992 2.81,-12.152 3.44,-15.473 20.31,-12.726 40.66,-19.058 61.09,-19.058 17.27,0 30.51,4.058 39.69,12.191 9.14,8.199 13.75,19.289 13.75,33.277 0,8.321 -2.11,15.512 -6.25,21.563 -4.18,6.019 -10.74,10.199 -19.69,12.5 l -77.03,20.469 c -11.05,3.011 -19.61,9.57 -25.62,19.691 -5.94,10.188 -8.91,21.289 -8.91,33.277 0,20.704 9.22,37.5 27.66,50.313 18.51,12.809 39.14,19.219 61.87,19.219 21.33,0 38.83,-2.809 52.5,-8.442 4.26,-1.679 9.1,-4.527 14.53,-8.59 z" /></g></g></svg>