<?xml version="1.0" encoding="utf-8"?>
<!DOCTYPE svg PUBLIC "-//W3C//DTD SVG 20010904//EN" "http://www.w3.org/TR/2001/REC-SVG-20010904/DTD/svg10.dtd">
<svg version="1.0" xmlns="http://www.w3.org/2000/svg" width="254px" height="153px" viewBox="0 0 254 153" preserveAspectRatio="xMidYMid meet">
 <g fill="#ffffff">
  <path d="M0 76.5 l0 -76.5 127 0 127 0 0 76.5 0 76.5 -127 0 -127 0 0 -76.5z m104.2 -10.9 c0.2 -1.9 0 -3.2 -0.4 -3 -0.8 0.5 -1.2 6.4 -0.4 6.4 0.2 0 0.6 -1.5 0.8 -3.4z m28.3 -8.6 c0 -6.6 -0.3 -12 -0.7 -12 -0.5 0 -0.8 3.5 -0.8 7.9 0 10.6 -0.8 14.1 -3.1 14.1 -1.1 0 -1.9 0.5 -1.9 1 0 0.6 1.5 1 3.3 1 l3.2 0 0 -12z m22.8 5.9 c-0.5 -0.5 -0.7 0.7 -0.4 2.9 0.5 3.4 0.6 3.5 0.9 0.8 0.2 -1.6 0 -3.2 -0.5 -3.7z"/>
 </g>
 <g fill="#78a12e">
  <path d="M122 104.5 c0 -1.2 5.4 -6.4 6.1 -5.9 0.5 0.3 0.9 0 0.9 -0.7 0 -0.6 0.8 -0.9 1.8 -0.7 1.5 0.4 1.7 0 1.4 -2.3 -0.7 -4.5 0.5 -7.3 3.7 -9.2 3.3 -1.9 6.4 -2.2 9.1 -0.7 1.9 1 1.9 1.1 0.2 2.9 -0.9 1.1 -2.5 3.1 -3.5 4.6 -1.3 1.7 -2.6 2.5 -4 2.3 -1.8 -0.2 -2.2 -0.9 -2 -3.8 0.1 -3.4 0.1 -3.5 -1.2 -1.1 -1.5 3 -0.3 7.6 2.5 9.1 4.5 2.4 11.9 0.5 14 -3.6 3.6 -6.7 -0.7 -13.4 -10.1 -15.9 -15.4 -4.1 -32.9 0.4 -34.5 8.9 -1.1 6.2 3.5 11.5 9.9 11.6 6.7 0 11.5 -7.6 7 -11.1 -1.5 -1.1 -1.6 -1.1 -0.5 0.1 2 2.3 1.4 4.9 -1.2 5.6 -3.1 0.7 -4.2 0.1 -6.2 -3.9 -0.9 -1.8 -2.1 -3.5 -2.7 -3.8 -0.5 -0.4 0 -1.2 1.3 -1.9 5.1 -2.7 13 1.9 13 7.7 0 3.4 -2.9 8 -5.4 8.7 -1.2 0.3 -4 0.6 -6.3 0.6 -3.5 0 -4.8 -0.6 -7.9 -3.6 -3.3 -3.3 -3.5 -4 -3.2 -8.3 0.3 -2.5 0.8 -5.3 1.2 -6.2 0.6 -1.3 -0.1 -1.7 -3.5 -2.2 -7.7 -1 -13 -7.2 -13.1 -15.1 -0.2 -7.3 5.9 -13.6 13.1 -13.6 2.3 0 2.9 -0.4 2.5 -1.5 -0.9 -2.3 3.7 -3.9 8.1 -2.9 l3.7 0.9 -2.2 2.8 c-1.2 1.5 -2.8 2.7 -3.6 2.7 -1.8 0 -1.7 1 0.1 3.4 0.8 1.1 1.5 3.3 1.5 4.9 0 3.9 -5.7 9.7 -9.7 9.7 -2.7 0 -2.8 -0.1 -2.8 -5.3 0.1 -6.7 1.1 -9.4 3.7 -10.3 2.7 -0.8 5.8 2.6 5.2 5.8 l-0.5 2.3 1.2 -2.3 c1.9 -3.6 -1.6 -7.6 -6.9 -8 -10.7 -0.8 -15.4 15.3 -6.3 21.7 9.3 6.6 20.5 1 23.1 -11.6 1.5 -7.1 0.7 -15.2 -2.1 -22.9 -2.4 -6.5 -8.4 -13.3 -11.8 -13.5 -6.9 -0.4 -8 -0.1 -11.2 3 -5.1 5.1 -3.2 12.4 3.7 14.5 2.5 0.8 7 -1 7.8 -3 0.4 -1.1 0.2 -1.1 -1.4 -0.2 -1.5 1 -2.3 0.9 -3.9 -0.6 -1.2 -1.1 -2.1 -3.1 -2.1 -4.6 0 -1.4 -0.6 -3.2 -1.2 -3.9 -1.1 -1 -0.4 -1.2 3.2 -0.9 3.6 0.2 4.8 0.8 6.5 3.3 1.1 1.7 2.9 3 4 3 1.2 0 2.1 0.8 2.2 2 0.2 1.1 0 1.4 -0.3 0.8 -0.9 -2.1 -2.6 -1.5 -6 2.2 -2.7 3 -3.8 3.5 -7.5 3.5 -3.3 0 -4.9 -0.6 -7.1 -2.7 -7.1 -6.8 -0.4 -19.3 10.3 -19.3 2.7 0 3 -0.2 1.9 -1.5 -1.9 -2.3 -1.6 -9.3 0.7 -12.3 4.5 -6.2 12.4 -7.5 18.6 -3.1 1.6 1.2 3.1 1.8 3.4 1.5 0.4 -0.3 0.1 -0.6 -0.5 -0.6 -0.7 0 -1.2 -0.5 -1.2 -1.1 0 -0.7 -0.8 -1.8 -1.7 -2.5 -2.7 -1.9 -0.7 -2.9 2.2 -1 2.3 1.5 2.5 2 1.9 7.4 -0.7 6.6 -2.5 9.9 -6 11.2 -3.6 1.4 -7 0.3 -10 -3.3 l-2.7 -3.2 3.4 -0.8 c7.5 -1.9 8.5 -1.9 9.9 -0.2 1.2 1.4 1.2 2 0 3.8 -1.3 2.2 -1.3 2.2 0.9 0.3 5 -4.5 0.5 -11.6 -7.4 -11.6 -3.8 0 -5.2 0.5 -7.6 2.9 -5.8 5.8 -3.2 13 6.3 17.1 7.6 3.2 22 3.2 30.4 -0.2 8.7 -3.4 11.6 -10 7.2 -16.1 -2 -2.7 -8.6 -4.7 -11.9 -3.5 -4.7 1.6 -6.4 4.3 -5.3 8.5 0.5 2 1.6 3.9 2.4 4.1 1.2 0.4 1.3 0.2 0.3 -0.9 -2 -2 -1.5 -4.7 0.8 -5.4 2.2 -0.7 10.9 1.4 10.9 2.7 0 0.4 -1.1 1.9 -2.4 3.4 -3.4 4.1 -9.1 3.8 -12.7 -0.6 -2.3 -2.7 -2.6 -3.7 -1.8 -6.2 1.1 -4 2.8 -5.8 6.7 -7.5 4.6 -1.9 9.6 -0.7 13.8 3.2 2.8 2.7 3.4 3.9 3.4 7.4 0 2.3 -0.5 5.1 -1 6.2 -0.9 1.6 -0.7 1.9 1.5 1.9 3.9 0 8.9 2.5 11.4 5.6 1.7 2.2 2.2 3.9 1.9 7 -0.2 2.3 -0.1 4.1 0.2 3.9 0.3 -0.2 1 0.3 1.7 1 1 1.1 0.8 1.9 -0.8 3.9 -1.1 1.4 -2.7 2.6 -3.5 2.6 -1.8 0 -1.8 -1.4 0.1 -3 0.8 -0.7 1.5 -1.7 1.5 -2.3 0 -0.5 -0.8 -0.3 -1.9 0.7 -4.7 4.3 -12.2 3.4 -15.6 -1.8 -2 -3 -4.1 -3.4 -4.9 -0.9 -0.3 1.1 -0.4 0.7 -0.3 -0.7 0.2 -1.9 0.7 -2.5 2.5 -2.4 1.2 0 2.2 -0.5 2.2 -1.1 0 -2.3 4.6 -5.5 7.9 -5.5 3.1 0 3.2 0.1 2.6 3.8 -0.4 2 -1.8 4.7 -3.1 5.9 -1.3 1.2 -2.4 2.5 -2.4 2.8 0 0.3 1.8 0.5 4 0.5 10.4 0 10.8 -14 0.4 -16.9 -6.7 -1.9 -13.7 2.3 -17.3 10.4 -6.8 15.4 -4.6 33 4.8 38.3 4.6 2.6 6.8 2.7 11.8 0.7 12.4 -5.1 9.9 -23.5 -3.1 -23.5 -3.2 0 -7.6 3.7 -7.5 6.3 0 1.9 0.2 1.9 1 -0.5 1.4 -3.7 4.6 -4.6 7.2 -2 1.6 1.6 2 3.4 2.1 8.1 0.1 6.1 0.1 6.1 -2.7 6.1 -4.1 0 -9.7 -5.8 -9.7 -9.9 0 -1.7 0.6 -4 1.3 -5.2 1 -1.8 0.9 -2.3 -1.5 -4 -3.8 -2.8 -3.5 -4.7 0.6 -5.4 4 -0.8 8 1 7.2 3.1 -0.4 1 0.3 1.4 2.7 1.4 13.4 0.1 17.6 20 5.7 26.8 -3.1 1.8 -3.9 3.7 -1.7 4.5 0.6 0.3 0.2 0.6 -1 0.6 -1.4 0.1 -2.3 0.9 -2.6 2.4 -0.4 1.9 -0.4 1.8 -0.6 -0.5 0 -1.6 0.4 -2.8 0.9 -2.8 0.6 0 1 -0.4 1 -1 0 -0.5 -1.6 -1 -3.5 -1 l-3.6 0 1.6 3 c4.5 8.8 -2.2 17.8 -12.6 16.8 -4.6 -0.5 -5 -0.3 -4.6 1.3 0.3 1.1 0.3 1.9 0 1.9 -1.2 0 -6.3 -3.5 -6.3 -4.3 0 -0.5 -1.4 0.3 -3.1 1.7 -2.8 2.4 -4.9 3.3 -4.9 2.1z m13.5 -4.6 c-0.4 -0.5 -1.3 -0.9 -2.2 -0.9 -1.3 0 -1.3 0.3 -0.3 1.5 1.3 1.5 3.5 1.1 2.5 -0.6z m3.5 -26.6 c-0.1 -1 -0.7 -4 -1.4 -6.8 -1.9 -6.9 -1.2 -15.8 1.8 -24.2 1.5 -3.9 2.6 -7.3 2.6 -7.7 0 -0.3 -5.6 -0.6 -12.5 -0.6 -6.9 0 -12.5 0.2 -12.5 0.5 0 0.2 1.1 3.9 2.5 8 3 8.9 3.5 20.5 1.1 27.2 -0.8 2.2 -1.2 4.4 -0.9 4.7 0.4 0.3 4.8 0.6 10 0.6 8.2 0 9.3 -0.2 9.3 -1.7z"/>
  <path d="M122.5 70.3 c1.5 -3.7 1.5 -18.8 0 -24.3 -1.8 -6.6 -1.7 -6 -0.5 -6 1.7 0 3.3 8.4 3.3 18 0 9.8 -0.7 14 -2.5 14 -0.6 0 -0.7 -0.8 -0.3 -1.7z"/>
  <path d="M134.5 70.3 c-2.4 -6 -1.2 -27.1 1.6 -28.9 1.8 -1.1 1.9 0.1 0.3 5.1 -1.6 5 -1.5 19.8 0.1 23.8 0.4 0.9 0.3 1.7 -0.3 1.7 -0.5 0 -1.3 -0.8 -1.7 -1.7z"/>
  <path d="M101.1 87.3 c-0.1 -1.6 -0.7 -2.3 -2.1 -2.3 -1.7 0 -1.8 -0.2 -0.8 -1.3 1.7 -1.9 4.1 0.5 3.5 3.5 l-0.4 2.3 -0.2 -2.2z"/>
  <path d="M127.5 86.1 c-0.3 -1.2 -1.1 -2.1 -1.6 -2.1 -0.5 0 -0.9 -0.5 -0.9 -1.2 0 -0.6 1 -0.2 2.3 1 1.3 1.2 2.7 1.9 3.2 1.5 0.4 -0.5 0.6 -0.2 0.3 0.6 -0.7 2.3 -2.6 2.4 -3.3 0.2z"/>
  <path d="M88 56 c2.5 -3.6 3.7 -4.3 4.5 -3.1 0.6 1 -4.3 6.1 -5.8 6.1 -0.5 0 0.1 -1.3 1.3 -3z"/>
  <path d="M112 57.5 c0 -1.5 2.6 -3.2 3.6 -2.3 0.2 0.3 0.2 1.3 -0.2 2.2 -0.8 2 -3.4 2.1 -3.4 0.1z"/>
  <path d="M143.6 57.4 c-0.4 -0.9 -0.4 -1.9 -0.1 -2.2 0.7 -0.8 3.5 1.9 2.9 2.9 -0.8 1.4 -2.1 1.1 -2.8 -0.7z"/>
  <path d="M170 58.2 c0 -0.5 -0.9 -1.8 -2 -3 -1.1 -1.1 -1.6 -2.3 -1.1 -2.7 0.5 -0.3 1.9 0.7 3 2.1 2.3 2.9 2.7 4.4 1.1 4.4 -0.5 0 -1 -0.4 -1 -0.8z"/>
  <path d="M88.7 48.2 c-1.5 -1.6 -2.7 -3.1 -2.7 -3.5 0 -1.4 3.1 -0.7 3.6 0.8 0.4 0.8 1.1 1.2 1.7 0.8 0.6 -0.4 0.7 -0.1 0.2 0.7 -0.4 0.7 -0.2 1.6 0.5 2 0.7 0.4 0.8 1 0.3 1.3 -0.6 0.4 -2.2 -0.6 -3.6 -2.1z"/>
  <path d="M124 26.2 c0 -0.5 0.7 -1.3 1.6 -1.6 1 -0.4 1.4 -0.1 1.2 0.6 -0.5 1.5 -2.8 2.3 -2.8 1z"/>
  <path d="M131.9 25.4 c-1.2 -1.4 -1.1 -1.6 0.5 -1.3 1.1 0.2 2.1 1 2.4 1.7 0.5 1.7 -1.3 1.5 -2.9 -0.4z"/>
  <path d="M158.9 23.4 c-0.6 -0.8 -0.9 -1.7 -0.5 -2.1 0.3 -0.3 0.6 -0.1 0.6 0.5 0 0.6 1 1.2 2.3 1.4 1.8 0.3 1.9 0.4 0.5 1 -1 0.4 -2.2 0.1 -2.9 -0.8z"/>
  <path d="M97.3 23.3 c0.9 -0.2 1.7 -1.4 1.7 -2.6 0 -1.6 0.3 -1.8 1.1 -1 1.7 1.7 0.3 4.3 -2.3 4.2 -1.7 -0.1 -1.8 -0.2 -0.5 -0.6z"/>
  <path d="M127 22.1 c0 -0.5 0.6 -1.4 1.4 -2 1 -0.9 1.6 -0.8 2.6 0.4 0.7 0.8 1.1 1.5 0.9 1.6 -3.8 0.7 -4.9 0.7 -4.9 0z"/>
  <path d="M130.4 9.9 c-0.6 -1 4 -5.9 5.6 -5.9 1.7 0 1.2 1 -2 4 -1.7 1.5 -3.3 2.4 -3.6 1.9z"/>
 </g>
 <g fill="#df6628">
  <path d="M62 152.3 c0 -1.6 1.5 -3.1 3.5 -3.4 1.1 -0.3 2.1 -1.2 2.3 -2.1 0.3 -1.5 -2.3 -8.5 -4.8 -13 -0.9 -1.6 -0.6 -1.8 2.2 -1.8 2.1 0 2.8 0.3 2 0.8 -1 0.7 -0.9 1.7 0.6 5.2 l1.8 4.2 1.8 -4 c1 -2.2 1.5 -4.5 1.2 -5.1 -0.4 -0.7 0.1 -1.1 1.4 -1.1 1.6 0 1.9 0.4 1.2 1.8 -0.5 0.9 -2.1 4.4 -3.6 7.7 -1.5 3.3 -3.3 7.1 -4 8.5 -1.1 2.3 -5.6 4.2 -5.6 2.3z"/>
  <path d="M198.3 145.2 c-3.7 -0.6 -2.6 -1.9 1.3 -1.8 5 0.1 5.5 -2 1.1 -3.9 -4.6 -1.9 -5.1 -2.9 -3.5 -6.5 1 -2.3 1.9 -2.9 3.8 -2.7 2.9 0.2 4.8 1.7 4.6 3.4 -0.3 2 -1.6 2.8 -1.6 0.9 0 -1.3 -0.7 -1.7 -2.7 -1.4 -1.6 0.2 -2.7 0.6 -2.5 1.1 0.1 0.4 0.5 0.7 0.8 0.6 0.4 0 1 0.3 1.3 0.8 0.3 0.4 1.5 1.3 2.6 1.9 1.1 0.6 2.1 2.2 2.3 3.6 0.2 2.1 -0.3 2.8 -2.5 3.5 -1.5 0.5 -3.8 0.7 -5 0.5z"/>
  <path d="M48.8 144.3 c1.6 -0.6 1.7 -16.4 0 -18.1 -0.9 -0.9 -0.3 -1.2 2.7 -1.2 3 0 3.6 0.3 2.7 1.2 -0.7 0.7 -1.2 4.1 -1.2 8.4 l0 7.2 4.5 0.4 c2.5 0.2 4.5 0 4.5 -0.4 0 -0.5 0.4 -0.8 0.9 -0.8 0.5 0 0.7 0.9 0.4 2 -0.5 1.8 -1.3 2 -8.2 1.9 -4.2 0 -7 -0.3 -6.3 -0.6z"/>
  <path d="M78.8 144.2 c0.8 -0.6 1.2 -3.1 1.1 -7.6 -0.1 -5.4 0.3 -7.3 1.8 -9.4 2.4 -3.2 5.3 -4.1 5.3 -1.7 0 1 -0.7 1.5 -1.7 1.3 -2.6 -0.4 -3.2 5.8 -0.6 6.5 1.7 0.4 1.7 0.5 0.1 0.6 -1.5 0.1 -1.8 1 -1.8 5 0 3 0.5 5.1 1.3 5.4 0.6 0.3 -0.6 0.6 -2.8 0.6 -2.4 0 -3.5 -0.3 -2.7 -0.7z"/>
  <path d="M89.2 143 c-0.6 -1.1 -1.2 -2.7 -1.2 -3.5 0 -2.5 2.4 -9.5 3.3 -9.5 2.4 0 7.6 3.1 8.2 5 0.9 2.7 0.5 3.1 -4.2 3.7 -4.6 0.6 -4.5 0.6 -3.7 2.7 0.4 1 1.3 1.4 2.4 1.1 2.2 -0.7 5.2 0.4 4.4 1.6 -0.3 0.5 -2.2 0.9 -4.2 0.9 -2.6 0 -4.1 -0.6 -5 -2z m7.8 -8.1 c-1.4 -2.4 -5.3 -2.2 -5.8 0.4 -0.3 1.4 0.4 1.7 3.3 1.7 3.3 0 3.5 -0.2 2.5 -2.1z"/>
  <path d="M121.6 144.2 c0.6 -0.4 1.2 -4.2 1.3 -8.9 0.2 -6.9 0 -8.3 -1.6 -9.2 -1.4 -0.8 0 -1 6 -1.1 7.1 0 7.7 0.2 7.7 2.1 0 1.9 -0.1 1.9 -1.6 0.4 -0.9 -0.9 -2.8 -1.5 -4.3 -1.3 -2.2 0.3 -2.6 0.8 -2.9 4.1 -0.3 3.5 -0.2 3.7 2.7 3.7 1.6 0 3.2 -0.6 3.4 -1.2 0.3 -0.7 0.5 0.3 0.5 2.2 0 1.9 -0.2 2.9 -0.5 2.3 -0.2 -0.7 -1.8 -1.3 -3.4 -1.3 -2.6 0 -2.9 0.4 -2.9 3 0 2.3 0.4 3 2 3 1.1 0 2 0.5 2 1 0 1.6 3.2 1.1 4.6 -0.7 1.2 -1.6 1.2 -1.6 0.7 0.5 -0.5 2 -1.1 2.2 -7.7 2.2 -3.9 0 -6.6 -0.4 -6 -0.8z"/>
  <path d="M142 140.6 c-1.1 -2.5 -2 -4.9 -2 -5.3 0 -0.5 -1 -1.7 -2.2 -2.8 -1.6 -1.3 -1.9 -2 -0.9 -2.3 0.7 -0.2 1.7 0.1 2.1 0.8 0.4 0.7 1.7 1 2.9 0.7 2.2 -0.5 2.7 0.3 1.2 1.9 -0.6 0.5 -0.4 2.3 0.7 4.8 l1.7 3.8 1.8 -3.7 c1.3 -2.7 1.5 -4.1 0.8 -4.8 -1.6 -1.6 -1.3 -3.7 0.5 -3.7 0.8 0 2.2 0.7 3 1.5 0.9 0.8 1.1 1.5 0.5 1.5 -0.5 0 -2.2 2.7 -3.7 6 -1.5 3.3 -3.1 6 -3.5 6 -0.5 0 -1.8 -2 -2.9 -4.4z"/>
  <path d="M156 143 c-2.7 -2.7 -2.5 -6.6 0.5 -9.5 2.8 -2.9 4.2 -3.1 7.3 -0.9 3.4 2.4 2.9 5.2 -1.2 6 -1.9 0.3 -3.9 0.3 -4.5 -0.1 -1.3 -0.8 -1.4 1.4 -0.2 3.4 0.5 0.7 1.4 1.1 1.9 0.7 1.5 -0.9 6.3 0.4 5.6 1.5 -1 1.7 -7.3 1 -9.4 -1.1z m7.3 -6.7 c1.1 -1 -1.3 -3.3 -3.4 -3.3 -1.1 0 -1.9 0.2 -1.9 0.4 0 0.2 -0.3 1.1 -0.6 2 -0.5 1.2 0.1 1.6 2.3 1.6 1.6 0 3.3 -0.3 3.6 -0.7z"/>
  <path d="M169.8 139.5 c0.3 -4.1 0 -5.5 -1 -5.5 -0.8 0 -0.6 -0.5 0.5 -1.1 1 -0.6 2.5 -0.8 3.3 -0.5 0.8 0.3 1.4 -0.1 1.4 -1 0 -2 3.9 -1.5 6.2 0.9 1.2 1.2 1.8 3.2 1.8 6.6 0 3 0.5 5.1 1.3 5.4 0.6 0.3 0.2 0.6 -1 0.6 -2.1 0.1 -2.3 -0.4 -2.3 -4.9 0 -4 -0.4 -5.1 -2.1 -6 -1.5 -0.9 -2.4 -0.8 -3.5 0.1 -1.8 1.4 -1.9 9.5 -0.1 10.2 0.6 0.3 -0.1 0.6 -1.8 0.6 l-3 0.1 0.3 -5.5z"/>
  <path d="M188.6 144.2 c-0.4 -0.7 -0.9 -8.4 -0.7 -13.4 0.1 -3.6 3.1 -3.9 3.1 -0.4 0 1.5 0.7 2.6 1.8 2.9 1.6 0.4 1.6 0.5 0 0.6 -2.5 0.1 -2.7 9.1 -0.2 9.1 0.8 0 1.2 0.5 0.9 1 -0.7 1.2 -4.2 1.3 -4.9 0.2z"/>
  <path d="M127.7 107.1 c-0.3 -1.1 0.2 -3 1.1 -4.2 1.2 -1.7 1.2 -2 0.1 -1.4 -0.8 0.5 -2 1.7 -2.7 2.7 -1.6 2.2 -4.2 2.4 -4.2 0.3 0 -0.8 0.5 -1.5 1.1 -1.5 0.6 0 0.8 -0.7 0.5 -1.6 -0.3 -0.8 -0.2 -1.3 0.3 -1 0.5 0.3 1.4 -0.1 2.1 -0.9 0.7 -0.8 1.6 -1.2 2.1 -0.9 0.5 0.3 0.9 0 0.9 -0.6 0 -0.6 0.8 -1 1.8 -0.8 0.9 0.2 1.7 0.8 1.7 1.3 0 1.7 1.6 3.6 2.5 3 0.8 -0.5 2.2 3.6 1.4 4.4 -0.2 0.3 -1.7 -0.2 -3.3 -1.2 l-2.7 -1.6 0.4 3 c0.3 2.1 0 2.9 -1.1 2.9 -0.8 0 -1.7 -0.9 -2 -1.9z"/>
  <path d="M97.1 88.7 c-1.5 -1.5 -1.4 -2.1 0.7 -4.4 1.4 -1.7 1.9 -1.8 3 -0.7 2.9 3.1 -0.7 8.1 -3.7 5.1z"/>
  <path d="M157 86.9 c0 -3 2.2 -5 3.8 -3.3 0.7 0.7 1.2 2.2 1.2 3.4 0 1.5 -0.6 2 -2.5 2 -1.9 0 -2.5 -0.5 -2.5 -2.1z"/>
  <path d="M128 87.2 c0 -0.6 -0.7 -1.8 -1.6 -2.7 -1.3 -1.2 -1.4 -1.9 -0.5 -2.8 0.9 -0.9 1.4 -0.9 2.1 0.2 0.7 1.2 1.1 1.3 2.5 0.1 1.2 -1 1.9 -1 2.7 -0.2 0.8 0.8 0.6 1.3 -0.8 1.9 -1 0.4 -1.9 1.4 -1.9 2.2 0 0.8 -0.6 1.6 -1.2 1.9 -0.7 0.2 -1.3 -0.1 -1.3 -0.6z"/>
  <path d="M122.5 70.3 c1.5 -3.7 1.5 -18.8 0 -24.3 -0.8 -3 -1.5 -5.6 -1.5 -5.7 0 -0.2 0.9 -0.3 1.9 -0.3 2.2 0 2.9 1.7 3.3 7.8 0.1 2.3 0.5 4.2 0.9 4.2 0.7 0 0.2 -8.5 -0.6 -10.9 -0.4 -1.1 0.2 -1.2 2.7 -0.6 1.8 0.4 4.6 0.7 6.1 0.7 2.3 -0.1 2.8 0.2 2.3 1.5 -2.7 7 -3.3 22 -1.1 27.6 0.6 1.5 -0.1 1.7 -7 1.7 -7 0 -7.6 -0.2 -7 -1.7z"/>
  <path d="M85.8 58.4 c-0.9 -0.8 0.3 -4.2 1.6 -4.7 0.6 -0.3 -0.1 -0.3 -1.6 -0.1 -1.6 0.2 -2.8 0 -2.9 -0.4 -0.5 -4.9 -0.5 -5.2 1.2 -5.2 1.2 0 1.6 -0.5 1.3 -1.5 -0.9 -2.2 2.6 -3.2 4.1 -1.2 0.7 0.9 1.5 1.4 1.9 1 0.4 -0.4 0.4 0 0 1 -0.3 0.9 -0.2 1.7 0.3 1.7 1.9 0 0.5 6.1 -1.9 8 -2.5 2.1 -3.1 2.3 -4 1.4z"/>
  <path d="M112 57.5 c0 -2.1 3 -3.1 4.1 -1.4 1.4 2.3 1.1 2.9 -1.6 2.9 -1.6 0 -2.5 -0.6 -2.5 -1.5z"/>
  <path d="M142 57.6 c0 -0.8 0.5 -1.8 1 -2.1 1.3 -0.8 4.2 1.4 3.4 2.6 -0.9 1.5 -4.4 1 -4.4 -0.5z"/>
  <path d="M170 58.3 c0 -0.5 -0.9 -1.9 -2 -3.1 -1.1 -1.2 -1.6 -2.4 -1 -2.7 1.4 -0.9 6.1 2.6 5.8 4.3 -0.3 1.7 -2.8 2.9 -2.8 1.5z"/>
  <path d="M170.7 52.3 c-1.3 -0.3 -1.5 -0.8 -0.7 -1.7 1.2 -1.6 6.2 -0.8 5.7 0.8 -0.4 1.3 -2.4 1.6 -5 0.9z"/>
  <path d="M166 49.1 c0 -0.6 0.5 -1.3 1.1 -1.6 0.5 -0.4 1.4 -1.8 2 -3.2 0.8 -2.2 1.1 -2.3 2.4 -0.9 2.1 2 1.9 3.2 -0.7 5 -2.5 1.8 -4.8 2.1 -4.8 0.7z"/>
  <path d="M124 27.1 c0 -2.4 2.5 -3.4 4 -1.6 1.5 1.8 0.5 3.5 -2.1 3.5 -1.2 0 -1.9 -0.7 -1.9 -1.9z"/>
  <path d="M130.7 27.7 c-0.3 -0.8 -0.2 -2 0.3 -2.7 1.1 -1.8 4.2 -0.4 3.8 1.7 -0.4 2.2 -3.4 2.9 -4.1 1z"/>
  <path d="M159.1 23.7 c-1.5 -1.5 -1.4 -2.1 0.7 -4.4 1.4 -1.7 1.9 -1.8 3 -0.7 2.9 3.1 -0.7 8.1 -3.7 5.1z"/>
  <path d="M95.4 22.5 c-0.4 -0.9 -0.2 -2.1 0.4 -2.7 1.6 -1.6 4.7 -0.5 4.7 1.7 0 2.6 -4.2 3.4 -5.1 1z"/>
  <path d="M128 23 c-1.3 -0.8 -1.3 -1.1 0.1 -2.5 1.3 -1.4 1.7 -1.4 2.7 -0.2 1.6 1.9 -0.7 4 -2.8 2.7z"/>
  <path d="M126.4 11.8 c0.3 -1 0.1 -1.8 -0.4 -1.8 -0.6 0 -1 -0.6 -1 -1.4 0 -0.8 -0.7 -1.6 -1.5 -2 -0.8 -0.3 -1.5 -1.2 -1.5 -2.1 0 -1.7 2.5 -2.1 3.5 -0.5 1.2 1.9 2.5 1 2.5 -1.6 0 -1.6 0.5 -2.4 1.3 -2.1 0.7 0.2 1.1 2 1 4.8 -0.2 3.9 -0.1 4.1 0.8 1.9 1.1 -2.6 2.6 -4 4.7 -4 2.1 0 1.3 2.1 -1.7 4.9 -3 2.8 -4.3 2.8 -5.4 0.1 -0.4 -1.1 -0.6 -1 -0.6 0.5 -0.1 1.1 -0.6 2.7 -1.2 3.5 -0.9 1.3 -1 1.2 -0.5 -0.2z"/>
 </g>
 <g fill="#fbebe3">
  <path d="M63 150 c0 -0.5 0.7 -1 1.5 -1 0.8 0 1.5 0.5 1.5 1 0 0.6 -0.7 1 -1.5 1 -0.8 0 -1.5 -0.4 -1.5 -1z"/>
  <path d="M53 143 c0 -0.5 1.8 -1 4 -1 2.2 0 4 0.5 4 1 0 0.6 -1.8 1 -4 1 -2.2 0 -4 -0.4 -4 -1z"/>
  <path d="M93.5 143 c0.3 -0.5 1.2 -1 2 -1 0.8 0 1.7 0.5 2 1 0.4 0.6 -0.5 1 -2 1 -1.5 0 -2.4 -0.4 -2 -1z"/>
  <path d="M126 143 c0 -0.5 0.9 -1 2 -1 1.1 0 2 0.5 2 1 0 0.6 -0.9 1 -2 1 -1.1 0 -2 -0.4 -2 -1z"/>
  <path d="M160 143 c0 -0.5 0.6 -1 1.4 -1 0.8 0 1.8 0.5 2.1 1 0.3 0.6 -0.3 1 -1.4 1 -1.2 0 -2.1 -0.4 -2.1 -1z"/>
  <path d="M170.3 138.5 c0 -2.7 0.2 -3.8 0.4 -2.2 0.2 1.5 0.2 3.7 0 5 -0.2 1.2 -0.4 0 -0.4 -2.8z"/>
  <path d="M147.7 133.3 c-1.4 -1.3 -0.6 -3.3 1.3 -3.3 1.1 0 2 0.5 2 1 0 0.6 -0.7 1 -1.6 1 -0.8 0 -1.2 0.5 -0.9 1 0.7 1.1 0.2 1.3 -0.8 0.3z"/>
  <path d="M173.7 132.2 c0.4 -1.5 1.2 -2.1 2.9 -2 2.8 0.3 3.3 1.8 0.6 1.8 -1 0 -2.3 0.5 -2.9 1.1 -0.9 0.9 -1 0.7 -0.6 -0.9z"/>
  <path d="M90 131.3 c0 -1.4 1.5 -1.6 4.5 -0.4 1.7 0.7 1.5 0.9 -1.3 1.3 -2.2 0.3 -3.2 0.1 -3.2 -0.9z"/>
  <path d="M136.6 131.5 c-0.3 -0.9 0 -1.5 0.9 -1.5 1.6 0 2 1.6 0.6 2.4 -0.5 0.3 -1.1 -0.1 -1.5 -0.9z"/>
  <path d="M199.3 132.3 c-2.4 -0.9 -1.3 -2.2 1.7 -2 1.6 0.1 2.8 0.7 2.7 1.2 -0.4 1.2 -2.7 1.6 -4.4 0.8z"/>
  <path d="M130.4 102.5 c-0.4 -0.8 -1 -1.2 -1.5 -0.9 -0.5 0.3 -0.9 -0.3 -0.9 -1.2 0 -1.6 -0.1 -1.6 -1.9 0 -1.5 1.4 -2.1 1.5 -2.7 0.4 -0.4 -0.7 -0.3 -1 0.1 -0.5 0.5 0.4 1.7 0 2.7 -1 1 -0.9 1.8 -1.2 1.8 -0.7 0 0.5 0.4 0.3 0.9 -0.5 0.6 -0.9 1.6 -1.1 2.7 -0.7 1.5 0.6 1.6 0.9 0.5 1.6 -0.8 0.4 -1.2 1.7 -0.8 2.9 0.6 2.4 -0.1 2.9 -0.9 0.6z"/>
  <path d="M127 85 c0 -1.2 2.8 -2.5 3.6 -1.7 0.3 0.3 -0.4 1 -1.5 1.7 -1.5 0.7 -2.1 0.7 -2.1 0z"/>
  <path d="M88.1 52.7 c0.2 -0.1 1.2 -0.9 2.2 -1.6 1.4 -1.2 1.7 -1.1 1.7 0.3 0 1 -0.8 1.6 -2.2 1.6 -1.2 0 -1.9 -0.1 -1.7 -0.3z"/>
  <path d="M82.5 49 c-0.4 -0.6 0.5 -1 1.9 -1 1.4 0 2.6 0.5 2.6 1 0 0.6 -0.9 1 -1.9 1 -1.1 0 -2.3 -0.4 -2.6 -1z"/>
  <path d="M126.3 11.8 c0.3 -0.9 0.1 -1.9 -0.6 -2.1 -0.7 -0.2 -0.9 -0.7 -0.6 -1.1 1.2 -1.3 2.8 1.9 1.7 3.4 -0.8 1.3 -0.9 1.2 -0.5 -0.2z"/>
  <path d="M130.3 10.3 c-0.7 -0.2 -1.3 -1.1 -1.3 -1.8 0 -0.7 -0.6 -1.5 -1.2 -1.8 -0.7 -0.2 -1 -0.7 -0.7 -1.1 0.4 -0.4 1.7 0.7 2.9 2.3 1.2 1.7 2 3.1 1.8 3 -0.2 0 -0.9 -0.3 -1.5 -0.6z"/>
 </g>
</svg>